# xmcd
#
# Track frame offsets:
#	150
#	15938
#	28238
#	41409
#	53163
#	68770
#	83107
#	99661
#	113851
#	130466
#	149533
#	160469
#	174934
#	189528
#	205660
#	227269
#	239089
#	253791
#	265188
#	279617
#
# Disc length: 3901 seconds
# Revision: 1
# Processed by: cddbd v1.5.2PL0 Copyright (c) Steve Scherf et al.
# Submitted via: dBpowerAMP V12.0
#
DISCID=1a0f3b14
DTITLE=Various Artist - Original Hits Country, Disc 5
DYEAR=2009
DGENRE=Country
TTITLE0=Kenny Rogers - The Gambler
TTITLE1=Willie Nelson - Country Willie
TTITLE2=Glen Campbell - Honey Come Back
TTITLE3=Tennessee Ernie Ford - Make the World Go Away
TTITLE4=Juice Newton - It's a Heartache
TTITLE5=Dolly Parton - Billy Dale
TTITLE6=Eddie Rabbitt - Tennessee Born and Bred
TTITLE7=George Ducas - In No Time At All
TTITLE8=Billy Dean - That Girl's Been Spyin' On Me
TTITLE9=Chris LeDoux - Cadillac Ranch
TTITLE10=Julie Reeves - Whatever
TTITLE11=Dr. Hook - A Little Bit More
TTITLE12=Gail Davies - I'm a Little Bit Lonely
TTITLE13=Lacy J. Dalton - Black Coffee
TTITLE14=Dan Seals - Everything That Glitters (is Not Gold)
TTITLE15=Wild Rose - Go Down Swingin'
TTITLE16=Trace Adkins - Nothin' But Taillights
TTITLE17=Linda Davis - Do I Do It To You Too
TTITLE18=Don Williams - Another Place Another Time
TTITLE19=Bobbie Gentry - I'll Never Fall In Love Again
EXTD=
EXTT0=
EXTT1=
EXTT2=
EXTT3=
EXTT4=
EXTT5=
EXTT6=
EXTT7=
EXTT8=
EXTT9=
EXTT10=
EXTT11=
EXTT12=
EXTT13=
EXTT14=
EXTT15=
EXTT16=
EXTT17=
EXTT18=
EXTT19=
PLAYORDER=
